<svg width="32" height="32" viewBox="0 0 32 32" fill="none" xmlns="http://www.w3.org/2000/svg">
<rect width="32" height="32" fill="#2E0DB1"/>
<rect x="6.78268" y="3.10543" width="18.4159" height="25.7899" rx="9.20794" stroke="white" stroke-width="1.56536"/>
<path d="M6 19.6685C11.5278 19.6685 16.0089 24.1496 16.0089 29.6774C10.4811 29.6774 6 25.1962 6 19.6685Z" fill="#2E0DB1"/>
<path fill-rule="evenodd" clip-rule="evenodd" d="M16.0089 29.6774C16.0089 29.1445 15.9673 28.6214 15.8871 28.1111C15.2155 23.8377 11.8397 20.4619 7.56622 19.7903C7.05592 19.7101 6.53282 19.6685 6 19.6685C6 20.2013 6.04163 20.7244 6.12183 21.2347C6.79341 25.5082 10.1692 28.884 14.4427 29.5555C14.953 29.6357 15.4761 29.6774 16.0089 29.6774ZM7.74612 21.4146C11.0081 22.1005 13.5769 24.6692 14.2628 27.9312C11.0008 27.2453 8.43202 24.6766 7.74612 21.4146Z" fill="white"/>
<path d="M26.0011 19.6685C20.4733 19.6685 15.9922 24.1496 15.9922 29.6774C21.52 29.6774 26.0011 25.1962 26.0011 19.6685Z" fill="#2E0DB1"/>
<path fill-rule="evenodd" clip-rule="evenodd" d="M26.0011 19.6685C25.4683 19.6685 24.9452 19.7101 24.4349 19.7903C20.1614 20.4619 16.7856 23.8377 16.114 28.1111C16.0338 28.6214 15.9922 29.1445 15.9922 29.6774C16.525 29.6774 17.0481 29.6357 17.5584 29.5555C21.8319 28.884 25.2077 25.5082 25.8793 21.2347C25.9595 20.7244 26.0011 20.2013 26.0011 19.6685ZM17.7383 27.9312C18.4242 24.6692 20.993 22.1005 24.255 21.4146C23.5691 24.6766 21.0003 27.2453 17.7383 27.9312Z" fill="white"/>
<circle cx="16.0262" cy="9.73176" r="6.62633" stroke="white" stroke-width="1.56536"/>
<path d="M15.9796 9.1792C21.6399 14.8395 21.6399 24.0167 15.9796 29.677C10.3193 24.0167 10.3193 14.8395 15.9796 9.1792Z" fill="#2E0DB1"/>
<path fill-rule="evenodd" clip-rule="evenodd" d="M14.9316 28.5108C15.2562 28.9135 15.6056 29.3029 15.9796 29.677C16.3536 29.3029 16.703 28.9135 17.0276 28.5108C21.2906 23.2219 21.2906 15.6343 17.0276 10.3454C16.703 9.94264 16.3536 9.55324 15.9796 9.1792C15.6056 9.55324 15.2562 9.94263 14.9316 10.3454C10.6686 15.6343 10.6686 23.2219 14.9316 28.5108ZM15.9796 11.5445C19.5528 16.1777 19.5528 22.6785 15.9796 27.3116C12.4064 22.6785 12.4064 16.1777 15.9796 11.5445Z" fill="white"/>
</svg>
