<svg width="256" height="256" viewBox="0 0 256 256" fill="none" xmlns="http://www.w3.org/2000/svg">
<rect width="256" height="256" fill="#2E0DB1"/>
<rect x="72.345" y="50.6966" width="110.507" height="154.756" rx="55.2536" stroke="white" stroke-width="9.39317"/>
<path d="M67.6016 150.087C100.772 150.087 127.661 176.977 127.661 210.147C94.4913 210.147 67.6016 183.258 67.6016 150.087Z" fill="#2E0DB1"/>
<path fill-rule="evenodd" clip-rule="evenodd" d="M127.661 210.147C127.661 206.95 127.412 203.811 126.93 200.749C122.901 175.105 102.644 154.848 76.9999 150.818C73.9378 150.337 70.7988 150.087 67.6016 150.087C67.6016 153.285 67.8514 156.424 68.3326 159.486C72.3625 185.129 92.6194 205.386 118.263 209.416C121.325 209.897 124.464 210.147 127.661 210.147ZM78.0794 160.565C97.6535 164.681 113.068 180.095 117.184 199.669C97.6095 195.554 82.1953 180.139 78.0794 160.565Z" fill="white"/>
<path d="M187.599 150.087C154.429 150.087 127.539 176.977 127.539 210.147C160.709 210.147 187.599 183.258 187.599 150.087Z" fill="#2E0DB1"/>
<path fill-rule="evenodd" clip-rule="evenodd" d="M187.599 150.087C184.402 150.087 181.263 150.337 178.201 150.818C152.557 154.848 132.3 175.105 128.27 200.749C127.789 203.811 127.539 206.95 127.539 210.147C130.736 210.147 133.875 209.897 136.937 209.416C162.581 205.386 182.838 185.129 186.868 159.486C187.349 156.424 187.599 153.285 187.599 150.087ZM138.017 199.669C142.133 180.095 157.547 164.681 177.121 160.565C173.005 180.139 157.591 195.554 138.017 199.669Z" fill="white"/>
<circle cx="127.779" cy="90.4588" r="39.7623" stroke="white" stroke-width="9.39317"/>
<path d="M127.498 87.1479C161.463 121.113 161.463 176.182 127.498 210.148C93.5321 176.182 93.5321 121.113 127.498 87.1479Z" fill="#2E0DB1"/>
<path fill-rule="evenodd" clip-rule="evenodd" d="M121.209 203.15C123.157 205.567 125.253 207.903 127.498 210.148C129.742 207.903 131.838 205.567 133.786 203.15C159.367 171.413 159.367 125.883 133.786 94.1457C131.838 91.7291 129.742 89.3924 127.498 87.1479C125.253 89.3924 123.157 91.7291 121.209 94.1457C95.6282 125.883 95.6282 171.413 121.209 203.15ZM127.498 101.342C148.939 129.143 148.939 168.152 127.498 195.954C106.056 168.152 106.056 129.143 127.498 101.342Z" fill="white"/>
</svg>
